<?xml version="1.0" encoding="utf-8"?>
<!-- Generator: Adobe Illustrator 15.1.0, SVG Export Plug-In . SVG Version: 6.00 Build 0)  -->
<!DOCTYPE svg PUBLIC "-//W3C//DTD SVG 1.1//EN" "http://www.w3.org/Graphics/SVG/1.1/DTD/svg11.dtd">
<svg version="1.1" id="Layer_1" xmlns="http://www.w3.org/2000/svg" xmlns:xlink="http://www.w3.org/1999/xlink" x="0px" y="0px"
	 width="800px" height="657.507px" viewBox="0 0 800 657.507" enable-background="new 0 0 800 657.507" xml:space="preserve">
<rect x="17.516" y="8.073" fill="#E0C7A3" width="747" height="625.758"/>
<rect x="43.603" y="8.073" fill="#A08B78" width="695.143" height="598.584"/>
<rect x="47.562" y="9.703" fill="#F4F1ED" width="687.189" height="592.836"/>
<line fill="none" stroke="#EFDDCB" stroke-width="2" stroke-miterlimit="10" x1="765.449" y1="633.831" x2="738.745" y2="606.633"/>
<line fill="none" stroke="#EFDDCB" stroke-width="2" stroke-miterlimit="10" x1="17.516" y1="633.831" x2="44.548" y2="606.633"/>
<text transform="matrix(-0.0013 1 -1 -0.0013 61.5635 165.5039)" fill="#566B99" font-family="'TimesNewRomanPS-BoldMT'" font-size="48">SCRABBLE</text>
<g>
	<rect x="721.952" y="8.616" fill="#E0DCDA" width="5.022" height="574.321"/>
	<rect x="674.708" y="8.616" fill="#E0DCDA" width="4.392" height="573.778"/>
	<rect x="626.265" y="8.616" fill="#E0DCDA" width="5.022" height="573.778"/>
	<rect x="579.371" y="8.073" fill="#E0DCDA" width="5.022" height="574.321"/>
	<rect x="531.896" y="8.616" fill="#E0DCDA" width="5.022" height="573.778"/>
	<rect x="483.681" y="8.616" fill="#E0DCDA" width="5.021" height="573.778"/>
	<rect x="436.581" y="8.616" fill="#E0DCDA" width="5.022" height="573.778"/>
	<rect x="389.067" y="8.073" fill="#E0DCDA" width="5.022" height="574.321"/>
	<rect x="293.792" y="8.616" fill="#E0DCDA" width="5.022" height="573.778"/>
	<rect x="341.594" y="8.616" fill="#E0DCDA" width="5.022" height="573.778"/>
	<rect x="246.479" y="8.616" fill="#E0DCDA" width="5.022" height="573.778"/>
	<rect x="199.465" y="8.616" fill="#E0DCDA" width="5.022" height="573.778"/>
	<rect x="151.787" y="8.616" fill="#E0DCDA" width="5.022" height="573.778"/>
</g>
<rect x="159.016" y="465.254" fill="#BD4853" width="43.25" height="63.39"/>
<rect x="206.029" y="398.338" fill="#BD4853" width="43.25" height="63.39"/>
<rect x="253.342" y="331.944" fill="#BD4853" width="43.25" height="63.39"/>
<rect x="301.145" y="265.277" fill="#BD4853" width="43.25" height="63.39"/>
<rect x="633.628" y="465.254" fill="#BD4853" width="43.249" height="63.39"/>
<rect x="585.815" y="398.338" fill="#BD4853" width="43.249" height="63.39"/>
<rect x="538.922" y="331.944" fill="#BD4853" width="43.249" height="63.39"/>
<rect x="488.54" y="265.277" fill="#BD4853" width="46.156" height="63.39"/>
<rect x="111.336" y="529.751" fill="#7F2833" width="43.25" height="63.39"/>
<rect x="681.472" y="529.751" fill="#7F2833" width="43.25" height="63.39"/>
<rect x="111.338" y="133.167" fill="#7F2833" width="43.25" height="64.673"/>
<rect x="681.475" y="133.834" fill="#7F2833" width="43.25" height="64.673"/>
<rect x="396.441" y="529.751" fill="#7F2833" width="43.25" height="63.39"/>
<rect x="348.617" y="201.888" fill="#39578F" width="43.25" height="63.39"/>
<rect x="443.229" y="201.888" fill="#39578F" width="43.25" height="63.39"/>
<rect x="348.617" y="66.589" fill="#39578F" width="43.25" height="62.85"/>
<rect x="443.229" y="68.174" fill="#39578F" width="43.25" height="61.264"/>
<rect x="396.44" y="398.339" fill="#799CD2" width="43.25" height="63.389"/>
<rect x="348.617" y="465.255" fill="#799CD2" width="43.25" height="63.389"/>
<rect x="443.229" y="465.255" fill="#799CD2" width="43.25" height="63.389"/>
<rect x="538.922" y="134.477" fill="#799CD2" width="43.25" height="63.389"/>
<rect x="253.342" y="133.81" fill="#799CD2" width="43.25" height="66.214"/>
<rect x="585.815" y="201.888" fill="#799CD2" width="43.25" height="63.389"/>
<rect x="585.815" y="68.174" fill="#799CD2" width="43.25" height="61.264"/>
<rect x="206.029" y="66.589" fill="#799CD2" width="43.25" height="65.146"/>
<rect x="206.029" y="201.888" fill="#799CD2" width="43.25" height="63.389"/>
<rect x="253.342" y="529.751" fill="#799CD2" width="43.25" height="63.389"/>
<rect x="538.922" y="529.751" fill="#799CD2" width="43.25" height="63.389"/>
<rect x="298.814" y="8.616" fill="#BD4853" width="45.581" height="57.874"/>
<rect x="488.828" y="8.014" fill="#BD4853" width="45.58" height="57.874"/>
<g>
	<line fill="none" stroke="#70635F" stroke-width="5" stroke-miterlimit="10" x1="726.812" y1="8.567" x2="726.812" y2="593.333"/>
	<line fill="none" stroke="#70635F" stroke-width="5" stroke-miterlimit="10" x1="679.206" y1="8.567" x2="679.206" y2="592.78"/>
	<line fill="none" stroke="#70635F" stroke-width="5" stroke-miterlimit="10" x1="631.125" y1="8.567" x2="631.125" y2="592.78"/>
	<line fill="none" stroke="#70635F" stroke-width="5" stroke-miterlimit="10" x1="584.23" y1="8.014" x2="584.23" y2="592.78"/>
	<line fill="none" stroke="#70635F" stroke-width="5" stroke-miterlimit="10" x1="536.757" y1="8.567" x2="536.757" y2="592.78"/>
	<line fill="none" stroke="#70635F" stroke-width="5" stroke-miterlimit="10" x1="488.54" y1="8.567" x2="488.54" y2="592.78"/>
	<line fill="none" stroke="#70635F" stroke-width="5" stroke-miterlimit="10" x1="441.441" y1="8.567" x2="441.441" y2="592.78"/>
	<line fill="none" stroke="#70635F" stroke-width="5" stroke-miterlimit="10" x1="393.927" y1="8.014" x2="393.927" y2="592.78"/>
	<line fill="none" stroke="#70635F" stroke-width="5" stroke-miterlimit="10" x1="298.651" y1="8.567" x2="298.651" y2="592.78"/>
	<line fill="none" stroke="#70635F" stroke-width="5" stroke-miterlimit="10" x1="346.454" y1="8.567" x2="346.454" y2="592.78"/>
	<line fill="none" stroke="#70635F" stroke-width="5" stroke-miterlimit="10" x1="251.339" y1="8.567" x2="251.339" y2="592.78"/>
	<line fill="none" stroke="#70635F" stroke-width="5" stroke-miterlimit="10" x1="204.325" y1="8.567" x2="204.325" y2="592.78"/>
	<line fill="none" stroke="#70635F" stroke-width="5" stroke-miterlimit="10" x1="156.647" y1="8.567" x2="156.647" y2="592.78"/>
	<line fill="none" stroke="#70635F" stroke-width="5" stroke-miterlimit="10" x1="110.328" y1="8.014" x2="110.328" y2="597.155"/>
</g>
<line fill="none" stroke="#70635F" stroke-width="5" stroke-miterlimit="10" x1="729.333" y1="595.232" x2="107.937" y2="595.132"/>
<line fill="none" stroke="#70635F" stroke-width="5" stroke-miterlimit="10" x1="725.981" y1="529.744" x2="110.149" y2="529.644"/>
<line fill="none" stroke="#70635F" stroke-width="5" stroke-miterlimit="10" x1="724.722" y1="463.161" x2="110.15" y2="463.062"/>
<line fill="none" stroke="#70635F" stroke-width="5" stroke-miterlimit="10" x1="724.723" y1="396.828" x2="110.151" y2="396.729"/>
<line fill="none" stroke="#70635F" stroke-width="5" stroke-miterlimit="10" x1="724.725" y1="330.496" x2="110.151" y2="330.397"/>
<line fill="none" stroke="#70635F" stroke-width="5" stroke-miterlimit="10" x1="723.716" y1="264.827" x2="109.144" y2="264.728"/>
<line fill="none" stroke="#70635F" stroke-width="5" stroke-miterlimit="10" x1="724.725" y1="200.123" x2="110.153" y2="200.023"/>
<line fill="none" stroke="#70635F" stroke-width="5" stroke-miterlimit="10" x1="724.727" y1="131.834" x2="110.154" y2="131.735"/>
<line fill="#566B99" stroke="#566B99" stroke-width="3" stroke-miterlimit="10" x1="54" y1="525.174" x2="97" y2="525.174"/>
<line fill="#566B99" stroke="#566B99" stroke-width="3" stroke-miterlimit="10" x1="54" y1="478.381" x2="97" y2="478.381"/>
<line fill="#566B99" stroke="#566B99" stroke-width="3" stroke-miterlimit="10" x1="54" y1="493.911" x2="97" y2="493.911"/>
<line fill="#566B99" stroke="#566B99" stroke-width="3" stroke-miterlimit="10" x1="54" y1="510.161" x2="97" y2="510.161"/>
<line fill="none" stroke="#70635F" stroke-width="5" stroke-miterlimit="10" x1="725.91" y1="66.589" x2="111.339" y2="66.49"/>
</svg>
