<?xml version="1.0" encoding="utf-8"?>
<!-- Generator: Adobe Illustrator 15.1.0, SVG Export Plug-In . SVG Version: 6.00 Build 0)  -->
<!DOCTYPE svg PUBLIC "-//W3C//DTD SVG 1.1//EN" "http://www.w3.org/Graphics/SVG/1.1/DTD/svg11.dtd">
<svg version="1.1" id="Layer_1" xmlns="http://www.w3.org/2000/svg" xmlns:xlink="http://www.w3.org/1999/xlink" x="0px" y="0px"
	 width="800px" height="600px" viewBox="0 0 800 600" enable-background="new 0 0 800 600" xml:space="preserve">
<rect x="17.516" y="13.63" fill="#E0C7A3" width="747" height="562.693"/>
<rect x="43.603" y="13.63" fill="#A08B78" width="695.143" height="535.519"/>
<rect x="47.562" y="13.63" fill="#F4F1ED" width="687.189" height="531.402"/>
<line fill="none" stroke="#EFDDCB" stroke-width="2" stroke-miterlimit="10" x1="765.449" y1="576.323" x2="738.745" y2="549.126"/>
<line fill="none" stroke="#EFDDCB" stroke-width="2" stroke-miterlimit="10" x1="17.516" y1="576.323" x2="44.548" y2="549.126"/>
<text transform="matrix(-0.0013 1 -1 -0.0013 61.4707 42.7808)" fill="#566B99" font-family="'TimesNewRomanPS-BoldMT'" font-size="48">SCRABBLE</text>
<g>
	<rect x="719.729" y="13.63" fill="#E0DCDA" width="5.022" height="522.601"/>
	<rect x="672.485" y="13.63" fill="#E0DCDA" width="4.392" height="522.107"/>
	<rect x="624.042" y="13.63" fill="#E0DCDA" width="5.022" height="522.107"/>
	<rect x="577.148" y="13.136" fill="#E0DCDA" width="5.022" height="522.602"/>
	<rect x="529.674" y="13.63" fill="#E0DCDA" width="5.022" height="522.107"/>
	<rect x="481.458" y="13.63" fill="#E0DCDA" width="5.021" height="522.107"/>
	<rect x="434.358" y="13.63" fill="#E0DCDA" width="5.022" height="522.107"/>
	<rect x="386.845" y="13.136" fill="#E0DCDA" width="5.022" height="522.602"/>
	<rect x="291.569" y="13.63" fill="#E0DCDA" width="5.022" height="522.107"/>
	<rect x="339.372" y="13.63" fill="#E0DCDA" width="5.022" height="522.107"/>
	<rect x="244.256" y="13.63" fill="#E0DCDA" width="5.022" height="522.107"/>
	<rect x="197.243" y="13.63" fill="#E0DCDA" width="5.022" height="522.107"/>
	<rect x="149.564" y="13.63" fill="#E0DCDA" width="5.022" height="522.107"/>
</g>
<rect x="159.016" y="407.747" fill="#BD4853" width="43.25" height="63.39"/>
<rect x="206.029" y="340.831" fill="#BD4853" width="43.25" height="63.39"/>
<rect x="253.342" y="274.437" fill="#BD4853" width="43.25" height="63.39"/>
<rect x="301.145" y="207.77" fill="#BD4853" width="43.25" height="63.39"/>
<rect x="633.628" y="407.747" fill="#BD4853" width="43.249" height="63.39"/>
<rect x="585.815" y="340.831" fill="#BD4853" width="43.249" height="63.39"/>
<rect x="538.922" y="274.437" fill="#BD4853" width="43.249" height="63.39"/>
<rect x="488.54" y="207.77" fill="#BD4853" width="46.156" height="63.39"/>
<rect x="111.336" y="472.244" fill="#7F2833" width="43.25" height="63.39"/>
<rect x="681.472" y="472.244" fill="#7F2833" width="43.25" height="63.39"/>
<rect x="111.338" y="75.66" fill="#7F2833" width="43.25" height="64.673"/>
<rect x="681.475" y="76.327" fill="#7F2833" width="43.25" height="64.673"/>
<rect x="396.441" y="472.244" fill="#7F2833" width="43.25" height="63.39"/>
<rect x="348.617" y="144.38" fill="#39578F" width="43.25" height="63.39"/>
<rect x="443.229" y="144.38" fill="#39578F" width="43.25" height="63.39"/>
<rect x="348.617" y="13.63" fill="#39578F" width="43.25" height="58.301"/>
<rect x="443.229" y="13.63" fill="#39578F" width="43.25" height="58.301"/>
<rect x="396.44" y="340.832" fill="#799CD2" width="43.25" height="63.389"/>
<rect x="348.617" y="407.748" fill="#799CD2" width="43.25" height="63.389"/>
<rect x="443.229" y="407.748" fill="#799CD2" width="43.25" height="63.389"/>
<rect x="538.922" y="76.969" fill="#799CD2" width="43.25" height="63.389"/>
<rect x="253.342" y="76.302" fill="#799CD2" width="43.25" height="66.214"/>
<rect x="585.815" y="144.381" fill="#799CD2" width="43.25" height="63.389"/>
<rect x="585.815" y="13.63" fill="#799CD2" width="43.25" height="58.301"/>
<rect x="206.029" y="13.136" fill="#799CD2" width="43.25" height="61.092"/>
<rect x="206.029" y="144.381" fill="#799CD2" width="43.25" height="63.389"/>
<rect x="253.342" y="472.244" fill="#799CD2" width="43.25" height="63.389"/>
<rect x="538.922" y="472.244" fill="#799CD2" width="43.25" height="63.389"/>
<g>
	<line fill="none" stroke="#70635F" stroke-width="5" stroke-miterlimit="10" x1="726.812" y1="13.63" x2="726.812" y2="536.231"/>
	<line fill="none" stroke="#70635F" stroke-width="5" stroke-miterlimit="10" x1="679.206" y1="13.63" x2="679.206" y2="535.737"/>
	<line fill="none" stroke="#70635F" stroke-width="5" stroke-miterlimit="10" x1="631.125" y1="13.63" x2="631.125" y2="535.737"/>
	<line fill="none" stroke="#70635F" stroke-width="5" stroke-miterlimit="10" x1="584.23" y1="13.136" x2="584.23" y2="535.737"/>
	<line fill="none" stroke="#70635F" stroke-width="5" stroke-miterlimit="10" x1="536.757" y1="13.63" x2="536.757" y2="535.737"/>
	<line fill="none" stroke="#70635F" stroke-width="5" stroke-miterlimit="10" x1="488.54" y1="13.63" x2="488.54" y2="535.737"/>
	<line fill="none" stroke="#70635F" stroke-width="5" stroke-miterlimit="10" x1="441.441" y1="13.63" x2="441.441" y2="535.737"/>
	<line fill="none" stroke="#70635F" stroke-width="5" stroke-miterlimit="10" x1="393.927" y1="13.136" x2="393.927" y2="535.737"/>
	<line fill="none" stroke="#70635F" stroke-width="5" stroke-miterlimit="10" x1="298.651" y1="13.63" x2="298.651" y2="535.737"/>
	<line fill="none" stroke="#70635F" stroke-width="5" stroke-miterlimit="10" x1="346.454" y1="13.63" x2="346.454" y2="535.737"/>
	<line fill="none" stroke="#70635F" stroke-width="5" stroke-miterlimit="10" x1="251.339" y1="13.63" x2="251.339" y2="535.737"/>
	<line fill="none" stroke="#70635F" stroke-width="5" stroke-miterlimit="10" x1="204.325" y1="13.63" x2="204.325" y2="535.737"/>
	<line fill="none" stroke="#70635F" stroke-width="5" stroke-miterlimit="10" x1="156.647" y1="13.63" x2="156.647" y2="535.737"/>
	<line fill="none" stroke="#70635F" stroke-width="5" stroke-miterlimit="10" x1="110.328" y1="13.136" x2="110.328" y2="539.647"/>
</g>
<g>
	
		<line fill="none" stroke="#70635F" stroke-width="5" stroke-miterlimit="10" x1="729.333" y1="537.725" x2="107.937" y2="537.625"/>
	
		<line fill="none" stroke="#70635F" stroke-width="5" stroke-miterlimit="10" x1="725.981" y1="472.236" x2="110.149" y2="472.137"/>
	<line fill="none" stroke="#70635F" stroke-width="5" stroke-miterlimit="10" x1="724.722" y1="405.653" x2="110.15" y2="405.555"/>
	<line fill="none" stroke="#70635F" stroke-width="5" stroke-miterlimit="10" x1="724.723" y1="339.32" x2="110.151" y2="339.222"/>
	<line fill="none" stroke="#70635F" stroke-width="5" stroke-miterlimit="10" x1="724.725" y1="272.988" x2="110.151" y2="272.89"/>
	<line fill="none" stroke="#70635F" stroke-width="5" stroke-miterlimit="10" x1="723.716" y1="207.319" x2="109.144" y2="207.22"/>
	
		<line fill="none" stroke="#70635F" stroke-width="5" stroke-miterlimit="10" x1="724.725" y1="142.615" x2="110.153" y2="142.516"/>
	<line fill="none" stroke="#70635F" stroke-width="5" stroke-miterlimit="10" x1="724.727" y1="74.327" x2="110.154" y2="74.228"/>
</g>
<line fill="#566B99" stroke="#566B99" stroke-width="3" stroke-miterlimit="10" x1="54" y1="405.653" x2="97" y2="405.653"/>
<line fill="#566B99" stroke="#566B99" stroke-width="3" stroke-miterlimit="10" x1="54" y1="420.874" x2="97" y2="420.874"/>
<line fill="#566B99" stroke="#566B99" stroke-width="3" stroke-miterlimit="10" x1="54" y1="436.403" x2="97" y2="436.403"/>
<line fill="#566B99" stroke="#566B99" stroke-width="3" stroke-miterlimit="10" x1="54" y1="452.653" x2="97" y2="452.653"/>
</svg>
