<?xml version="1.0" encoding="utf-8"?>
<!-- Generator: Adobe Illustrator 15.1.0, SVG Export Plug-In . SVG Version: 6.00 Build 0)  -->
<!DOCTYPE svg PUBLIC "-//W3C//DTD SVG 1.1//EN" "http://www.w3.org/Graphics/SVG/1.1/DTD/svg11.dtd">
<svg version="1.1" id="Layer_1" xmlns="http://www.w3.org/2000/svg" xmlns:xlink="http://www.w3.org/1999/xlink" x="0px" y="0px"
	 width="800px" height="657.507px" viewBox="0 0 800 657.507" enable-background="new 0 0 800 657.507" xml:space="preserve">
<rect x="17.516" y="8.073" fill="#E0C7A3" width="747" height="625.758"/>
<g id="shadows">
	
		<linearGradient id="SVGID_1_" gradientUnits="userSpaceOnUse" x1="382.7842" y1="557.2681" x2="382.7519" y2="593.449" gradientTransform="matrix(1 0 0 1 8 46.5068)">
		<stop  offset="0.0093" style="stop-color:#FFFFFF"/>
		<stop  offset="1" style="stop-color:#000000"/>
	</linearGradient>
	<polygon opacity="0.2" fill="url(#SVGID_1_)" enable-background="new    " points="763.998,633.832 17.516,633.832 43.652,606.632 
		737.315,606.658 	"/>
	
		<linearGradient id="SVGID_2_" gradientUnits="userSpaceOnUse" x1="544.6299" y1="739.5708" x2="544.5983" y2="775.0507" gradientTransform="matrix(-0.0018 -1 0.9359 -0.0017 45.4791 866.8417)">
		<stop  offset="0.0093" style="stop-color:#FFFFFF"/>
		<stop  offset="1" style="stop-color:#000000"/>
	</linearGradient>
	<polygon opacity="0.2" fill="url(#SVGID_2_)" enable-background="new    " points="764.184,8.074 764.854,633.83 739.351,606.843 
		738.74,8.073 	"/>
	
		<linearGradient id="SVGID_3_" gradientUnits="userSpaceOnUse" x1="-298.5708" y1="588.4634" x2="-298.6042" y2="625.9465" gradientTransform="matrix(-9.543230e-04 1 -1 -9.543230e-04 636.5908 619.6137)">
		<stop  offset="0.0093" style="stop-color:#FFFFFF"/>
		<stop  offset="1" style="stop-color:#000000"/>
	</linearGradient>
	<polygon opacity="0.2" fill="url(#SVGID_3_)" enable-background="new    " points="18.027,632.843 17.516,8.073 43.603,8.073 
		45.227,606.185 	"/>
</g>
<line fill="none" stroke="#EFDDCB" stroke-width="2" stroke-miterlimit="10" x1="763.998" y1="632.417" x2="737.87" y2="605.804"/>
<line fill="none" stroke="#EFDDCB" stroke-width="2" stroke-miterlimit="10" x1="18.027" y1="632.843" x2="45.059" y2="605.644"/>
<rect x="43.603" y="8.073" fill="#A08B78" width="695.143" height="598.584"/>
<rect x="47.562" y="9.703" fill="#F4F1ED" width="687.189" height="592.835"/>
<g>
	
		<rect x="721.952" y="8.626" fill="#D1D0CF" stroke="#D1D0CF" stroke-width="1.5" stroke-miterlimit="10" width="5.021" height="585.057"/>
	
		<rect x="674.708" y="8.626" fill="#D1D0CF" stroke="#D1D0CF" stroke-width="1.5" stroke-miterlimit="10" width="4.392" height="584.504"/>
	
		<rect x="626.265" y="8.626" fill="#D1D0CF" stroke="#D1D0CF" stroke-width="1.5" stroke-miterlimit="10" width="5.022" height="584.504"/>
	
		<rect x="579.371" y="8.073" fill="#D1D0CF" stroke="#D1D0CF" stroke-width="1.5" stroke-miterlimit="10" width="5.021" height="585.057"/>
	
		<rect x="531.896" y="8.626" fill="#D1D0CF" stroke="#D1D0CF" stroke-width="1.5" stroke-miterlimit="10" width="5.021" height="584.504"/>
	
		<rect x="483.681" y="8.626" fill="#D1D0CF" stroke="#D1D0CF" stroke-width="1.5" stroke-miterlimit="10" width="5.021" height="584.504"/>
	
		<rect x="436.581" y="8.626" fill="#D1D0CF" stroke="#D1D0CF" stroke-width="1.5" stroke-miterlimit="10" width="5.021" height="584.504"/>
	
		<rect x="389.067" y="8.073" fill="#D1D0CF" stroke="#D1D0CF" stroke-width="1.5" stroke-miterlimit="10" width="5.022" height="585.057"/>
	
		<rect x="293.792" y="8.626" fill="#D1D0CF" stroke="#D1D0CF" stroke-width="1.5" stroke-miterlimit="10" width="5.022" height="584.504"/>
	
		<rect x="341.594" y="8.626" fill="#D1D0CF" stroke="#D1D0CF" stroke-width="1.5" stroke-miterlimit="10" width="5.022" height="584.504"/>
	
		<rect x="246.479" y="8.626" fill="#D1D0CF" stroke="#D1D0CF" stroke-width="1.5" stroke-miterlimit="10" width="5.022" height="584.504"/>
	
		<rect x="199.465" y="8.626" fill="#D1D0CF" stroke="#D1D0CF" stroke-width="1.5" stroke-miterlimit="10" width="5.022" height="584.504"/>
	
		<rect x="151.787" y="8.626" fill="#D1D0CF" stroke="#D1D0CF" stroke-width="1.5" stroke-miterlimit="10" width="5.022" height="584.504"/>
</g>
<g>
	<rect x="111.336" y="529.751" fill="#7F2833" width="43.25" height="63.389"/>
	<rect x="681.472" y="529.751" fill="#7F2833" width="43.25" height="63.389"/>
	<rect x="111.338" y="133.167" fill="#7F2833" width="43.25" height="64.673"/>
	<rect x="681.475" y="133.834" fill="#7F2833" width="43.25" height="64.673"/>
	<rect x="394.089" y="529.751" fill="#7F2833" width="45.604" height="63.389"/>
</g>
<g>
	<rect x="348.617" y="201.888" fill="#39578F" width="43.25" height="63.39"/>
	<rect x="443.229" y="201.888" fill="#39578F" width="43.25" height="63.39"/>
	<rect x="348.617" y="66.589" fill="#39578F" width="43.25" height="62.85"/>
	<rect x="443.229" y="68.174" fill="#39578F" width="43.25" height="61.264"/>
</g>
<g>
	<rect x="396.151" y="398.205" fill="#799CD2" width="43.25" height="63.389"/>
	<rect x="348.328" y="465.121" fill="#799CD2" width="43.25" height="63.389"/>
	<rect x="442.939" y="465.121" fill="#799CD2" width="43.25" height="63.389"/>
	<rect x="538.633" y="134.342" fill="#799CD2" width="43.25" height="63.389"/>
	<rect x="253.053" y="133.675" fill="#799CD2" width="43.25" height="66.214"/>
	<rect x="585.526" y="201.753" fill="#799CD2" width="43.25" height="63.389"/>
	<rect x="585.526" y="68.039" fill="#799CD2" width="43.25" height="61.264"/>
	<rect x="205.74" y="66.454" fill="#799CD2" width="43.25" height="65.146"/>
	<rect x="205.74" y="201.753" fill="#799CD2" width="43.25" height="63.389"/>
	<rect x="253.053" y="529.617" fill="#799CD2" width="43.25" height="63.389"/>
	<rect x="538.633" y="529.617" fill="#799CD2" width="43.25" height="63.389"/>
</g>
<g>
	<rect x="159.016" y="465.253" fill="#BD4853" width="43.25" height="63.391"/>
	<rect x="206.029" y="398.337" fill="#BD4853" width="43.25" height="63.391"/>
	<rect x="253.342" y="331.945" fill="#BD4853" width="43.25" height="63.389"/>
	<rect x="301.145" y="265.277" fill="#BD4853" width="43.25" height="63.39"/>
	<rect x="633.628" y="465.253" fill="#BD4853" width="43.249" height="63.391"/>
	<rect x="585.815" y="398.337" fill="#BD4853" width="43.249" height="63.391"/>
	<rect x="538.922" y="331.945" fill="#BD4853" width="43.249" height="63.389"/>
	<rect x="488.54" y="265.277" fill="#BD4853" width="46.156" height="63.39"/>
	<rect x="298.814" y="8.616" fill="#BD4853" width="45.581" height="57.874"/>
	<rect x="488.828" y="8.014" fill="#BD4853" width="45.58" height="57.874"/>
</g>
<g>
	
		<line fill="none" stroke="#6684AF" stroke-width="3" stroke-miterlimit="10" x1="294.917" y1="592.958" x2="294.917" y2="532.265"/>
	<line fill="none" stroke="#6684AF" stroke-width="3" stroke-miterlimit="10" x1="390" y1="527.587" x2="390" y2="465.255"/>
	<line fill="none" stroke="#6684AF" stroke-width="3" stroke-miterlimit="10" x1="485.5" y1="527.587" x2="485.5" y2="465.255"/>
	
		<line fill="none" stroke="#6684AF" stroke-width="3" stroke-miterlimit="10" x1="580.333" y1="593.599" x2="580.333" y2="531.267"/>
	<line fill="none" stroke="#6684AF" stroke-width="3" stroke-miterlimit="10" x1="437.5" y1="461.191" x2="437.5" y2="398.859"/>
	<line fill="none" stroke="#6684AF" stroke-width="3" stroke-miterlimit="10" x1="247.5" y1="263.513" x2="247.5" y2="201.181"/>
	<line fill="none" stroke="#6684AF" stroke-width="3" stroke-miterlimit="10" x1="294.917" y1="197.836" x2="294.917" y2="133.8"/>
	<line fill="none" stroke="#6684AF" stroke-width="3" stroke-miterlimit="10" x1="247.417" y1="130.253" x2="247.417" y2="68.384"/>
	<line fill="none" stroke="#6684AF" stroke-width="3" stroke-miterlimit="10" x1="627.25" y1="130.336" x2="627.25" y2="69.05"/>
	
		<line fill="none" stroke="#6684AF" stroke-width="3" stroke-miterlimit="10" x1="580.125" y1="197.731" x2="580.125" y2="133.709"/>
	<line fill="none" stroke="#6684AF" stroke-width="3" stroke-miterlimit="10" x1="627.25" y1="262.529" x2="627.25" y2="202.128"/>
</g>
<g>
	<rect x="483.025" y="202.623" fill="#2E4872" width="3.166" height="60.401"/>
	<rect x="388.108" y="202.623" fill="#2E4872" width="3.166" height="60.401"/>
	<rect x="388.009" y="69.038" fill="#2E4872" width="3.166" height="60.401"/>
	<rect x="483.025" y="69.038" fill="#2E4872" width="3.166" height="60.401"/>
</g>
<g>
	<rect x="198.75" y="465.255" fill="#9B3E4E" width="3.516" height="63.389"/>
	<rect x="245.474" y="399.005" fill="#9B3E4E" width="3.516" height="63.389"/>
	<rect x="292.787" y="332.63" fill="#9B3E4E" width="3.516" height="63.389"/>
	<rect x="340.589" y="267.107" fill="#9B3E4E" width="3.516" height="63.389"/>
	<rect x="531.181" y="267.107" fill="#9B3E4E" width="3.518" height="63.389"/>
	<rect x="578.655" y="332.63" fill="#9B3E4E" width="3.516" height="63.389"/>
	<rect x="625.26" y="398.88" fill="#9B3E4E" width="3.518" height="63.389"/>
	<rect x="673.389" y="465.253" fill="#9B3E4E" width="3.518" height="63.389"/>
	<rect x="340.589" y="8.073" fill="#9B3E4E" width="3.516" height="56.821"/>
	<rect x="530.892" y="8.014" fill="#9B3E4E" width="3.519" height="56.821"/>
</g>
<g>
	<line fill="none" stroke="#70635F" stroke-width="5" stroke-miterlimit="10" x1="726.812" y1="8.567" x2="726.812" y2="593.333"/>
	<line fill="none" stroke="#70635F" stroke-width="5" stroke-miterlimit="10" x1="679.206" y1="8.567" x2="679.206" y2="592.781"/>
	<line fill="none" stroke="#70635F" stroke-width="5" stroke-miterlimit="10" x1="631.125" y1="8.567" x2="631.125" y2="592.781"/>
	<line fill="none" stroke="#70635F" stroke-width="5" stroke-miterlimit="10" x1="584.23" y1="8.014" x2="584.23" y2="592.781"/>
	<line fill="none" stroke="#70635F" stroke-width="5" stroke-miterlimit="10" x1="536.757" y1="8.567" x2="536.757" y2="592.781"/>
	<line fill="none" stroke="#70635F" stroke-width="5" stroke-miterlimit="10" x1="488.54" y1="8.567" x2="488.54" y2="592.781"/>
	<line fill="none" stroke="#70635F" stroke-width="5" stroke-miterlimit="10" x1="441.441" y1="8.567" x2="441.441" y2="592.781"/>
	<line fill="none" stroke="#70635F" stroke-width="5" stroke-miterlimit="10" x1="393.927" y1="8.014" x2="393.927" y2="592.781"/>
	<line fill="none" stroke="#70635F" stroke-width="5" stroke-miterlimit="10" x1="298.651" y1="8.567" x2="298.651" y2="592.781"/>
	<line fill="none" stroke="#70635F" stroke-width="5" stroke-miterlimit="10" x1="346.454" y1="8.567" x2="346.454" y2="592.781"/>
	<line fill="none" stroke="#70635F" stroke-width="5" stroke-miterlimit="10" x1="251.339" y1="8.567" x2="251.339" y2="592.781"/>
	<line fill="none" stroke="#70635F" stroke-width="5" stroke-miterlimit="10" x1="204.325" y1="8.567" x2="204.325" y2="592.781"/>
	<line fill="none" stroke="#70635F" stroke-width="5" stroke-miterlimit="10" x1="156.647" y1="8.567" x2="156.647" y2="592.781"/>
	<line fill="none" stroke="#70635F" stroke-width="5" stroke-miterlimit="10" x1="110.328" y1="8.014" x2="110.328" y2="597.156"/>
</g>
<line fill="none" stroke="#70635F" stroke-width="5" stroke-miterlimit="10" x1="729.333" y1="595.232" x2="107.937" y2="595.132"/>
<line fill="none" stroke="#70635F" stroke-width="5" stroke-miterlimit="10" x1="725.981" y1="529.744" x2="110.149" y2="529.644"/>
<line fill="none" stroke="#70635F" stroke-width="5" stroke-miterlimit="10" x1="724.722" y1="463.162" x2="110.15" y2="463.062"/>
<line fill="none" stroke="#70635F" stroke-width="5" stroke-miterlimit="10" x1="724.723" y1="396.828" x2="110.151" y2="396.728"/>
<line fill="none" stroke="#70635F" stroke-width="5" stroke-miterlimit="10" x1="724.725" y1="330.496" x2="110.151" y2="330.398"/>
<line fill="none" stroke="#70635F" stroke-width="5" stroke-miterlimit="10" x1="723.716" y1="264.827" x2="109.144" y2="264.728"/>
<line fill="none" stroke="#70635F" stroke-width="5" stroke-miterlimit="10" x1="724.725" y1="200.123" x2="110.153" y2="200.023"/>
<line fill="none" stroke="#70635F" stroke-width="5" stroke-miterlimit="10" x1="724.727" y1="131.834" x2="110.154" y2="131.735"/>
<text transform="matrix(-0.0013 1 -1 -0.0013 61.5635 165.502)" fill="#566B99" font-family="'TimesNewRomanPS-BoldMT'" font-size="48">SCRABBLE</text>
<g>
	<line fill="none" stroke="#566B99" stroke-width="3" stroke-miterlimit="10" x1="55.667" y1="525.173" x2="97" y2="525.173"/>
	<line fill="none" stroke="#566B99" stroke-width="3" stroke-miterlimit="10" x1="55.667" y1="478.38" x2="97" y2="478.38"/>
	<line fill="none" stroke="#566B99" stroke-width="3" stroke-miterlimit="10" x1="55.667" y1="493.912" x2="97" y2="493.912"/>
	<line fill="none" stroke="#566B99" stroke-width="3" stroke-miterlimit="10" x1="55.667" y1="510.162" x2="97" y2="510.162"/>
</g>
<line fill="none" stroke="#70635F" stroke-width="5" stroke-miterlimit="10" x1="725.91" y1="66.589" x2="111.339" y2="66.49"/>
</svg>
